<svg width="116" height="24" viewBox="0 0 116 24" fill="none" xmlns="http://www.w3.org/2000/svg">
<path d="M107.515 24C105.701 24 104.123 23.648 102.779 22.944C101.435 22.2187 100.389 21.216 99.6427 19.936C98.9174 18.656 98.5547 17.184 98.5547 15.52C98.5547 13.8347 98.9174 12.3627 99.6427 11.104C100.389 9.82401 101.424 8.83201 102.747 8.12801C104.069 7.40268 105.605 7.04001 107.355 7.04001C109.04 7.04001 110.501 7.38134 111.739 8.06401C112.976 8.74668 113.936 9.69601 114.619 10.912C115.301 12.128 115.643 13.5573 115.643 15.2C115.643 15.5413 115.632 15.8613 115.611 16.16C115.589 16.4373 115.557 16.704 115.515 16.96H101.371V13.792H111.643L110.811 14.368C110.811 13.0453 110.491 12.0747 109.851 11.456C109.232 10.816 108.379 10.496 107.291 10.496C106.032 10.496 105.051 10.9227 104.347 11.776C103.664 12.6293 103.323 13.9093 103.323 15.616C103.323 17.28 103.664 18.5173 104.347 19.328C105.051 20.1387 106.096 20.544 107.483 20.544C108.251 20.544 108.912 20.416 109.467 20.16C110.021 19.904 110.437 19.488 110.715 18.912H115.227C114.693 20.4907 113.776 21.7387 112.475 22.656C111.195 23.552 109.541 24 107.515 24Z" fill="#02122E"/>
<path d="M91.2109 23.68V0.639999H96.0109V23.68H91.2109Z" fill="#02122E"/>
<path d="M82.5859 23.68V0.639999H87.3859V23.68H82.5859Z" fill="#02122E"/>
<path d="M71.8897 24C70.0764 24 68.4977 23.648 67.1537 22.944C65.8097 22.2187 64.7644 21.216 64.0177 19.936C63.2924 18.656 62.9297 17.184 62.9297 15.52C62.9297 13.8347 63.2924 12.3627 64.0177 11.104C64.7644 9.82401 65.799 8.83201 67.1217 8.12801C68.4444 7.40268 69.9804 7.04001 71.7297 7.04001C73.415 7.04001 74.8764 7.38134 76.1137 8.06401C77.351 8.74668 78.311 9.69601 78.9937 10.912C79.6764 12.128 80.0177 13.5573 80.0177 15.2C80.0177 15.5413 80.007 15.8613 79.9857 16.16C79.9644 16.4373 79.9324 16.704 79.8897 16.96H65.7457V13.792H76.0177L75.1857 14.368C75.1857 13.0453 74.8657 12.0747 74.2257 11.456C73.607 10.816 72.7537 10.496 71.6657 10.496C70.407 10.496 69.4257 10.9227 68.7217 11.776C68.039 12.6293 67.6977 13.9093 67.6977 15.616C67.6977 17.28 68.039 18.5173 68.7217 19.328C69.4257 20.1387 70.471 20.544 71.8577 20.544C72.6257 20.544 73.287 20.416 73.8417 20.16C74.3964 19.904 74.8124 19.488 75.0897 18.912H79.6017C79.0683 20.4907 78.151 21.7387 76.8497 22.656C75.5697 23.552 73.9164 24 71.8897 24Z" fill="#02122E"/>
<path d="M51.7836 23.68L45.3516 7.36H50.5036L55.5276 22.592H52.8396L57.8316 7.36H62.8556L56.4236 23.68H51.7836Z" fill="#02122E"/>
<path d="M38.992 23.68V7.36H43.792V23.68H38.992ZM38.832 5.184V0H43.952V5.184H38.832Z" fill="#02122E"/>
<path d="M26.4922 23.68V7.36001H31.1962V11.2H31.2922V23.68H26.4922ZM31.2922 15.168L30.8762 11.296C31.2602 9.90934 31.8895 8.85334 32.7642 8.12801C33.6389 7.40268 34.7269 7.04001 36.0282 7.04001C36.4335 7.04001 36.7322 7.08268 36.9242 7.16801V11.648C36.8175 11.6053 36.6682 11.584 36.4762 11.584C36.2842 11.5627 36.0495 11.552 35.7722 11.552C34.2362 11.552 33.1055 11.8293 32.3802 12.384C31.6549 12.9173 31.2922 13.8453 31.2922 15.168Z" fill="#02122E"/>
<path d="M11.808 24C10.1013 24 8.52267 23.712 7.072 23.136C5.64267 22.56 4.39467 21.7493 3.328 20.704C2.28267 19.6373 1.46133 18.3787 0.864 16.928C0.288 15.456 0 13.8347 0 12.064C0 9.71732 0.501333 7.66933 1.504 5.91999C2.50667 4.14933 3.89333 2.77333 5.664 1.79199C7.456 0.810659 9.49333 0.319992 11.776 0.319992C14.1013 0.319992 16.1493 0.810659 17.92 1.79199C19.6907 2.77333 21.0773 4.14933 22.08 5.91999C23.104 7.69066 23.616 9.74933 23.616 12.096C23.616 13.8453 23.3173 15.456 22.72 16.928C22.144 18.3787 21.3227 19.6373 20.256 20.704C19.2107 21.7493 17.9627 22.56 16.512 23.136C15.0827 23.712 13.5147 24 11.808 24ZM11.776 20.096C13.12 20.096 14.304 19.7547 15.328 19.072C16.352 18.3893 17.152 17.4507 17.728 16.256C18.3253 15.04 18.624 13.632 18.624 12.032C18.624 10.4533 18.336 9.07732 17.76 7.90399C17.184 6.73066 16.384 5.82399 15.36 5.18399C14.336 4.54399 13.1413 4.22399 11.776 4.22399C10.432 4.22399 9.248 4.54399 8.224 5.18399C7.2 5.82399 6.4 6.73066 5.824 7.90399C5.26933 9.05599 4.992 10.432 4.992 12.032C4.992 13.6533 5.28 15.072 5.856 16.288C6.432 17.4827 7.232 18.4213 8.256 19.104C9.28 19.7653 10.4533 20.096 11.776 20.096Z" fill="#02122E"/>
</svg>
